<?xml version="1.0" standalone="no"?><!DOCTYPE svg PUBLIC "-//W3C//DTD SVG 1.1//EN" "http://www.w3.org/Graphics/SVG/1.1/DTD/svg11.dtd"><svg t="1574995492736" class="icon" viewBox="0 0 1024 1024" version="1.1" xmlns="http://www.w3.org/2000/svg" p-id="5433" xmlns:xlink="http://www.w3.org/1999/xlink" width="200" height="200"><defs><style type="text/css"></style></defs><path d="M601.728 960H288.256v-44.8h313.472a268.608 268.608 0 0 0 268.672-268.672v-44.8a268.672 268.672 0 0 0-268.672-268.672H182.336L378.24 528.96l-28.416 28.352-224.256-224.256-16.384-16.384-0.384-0.384 0.384-0.384v-10.496L108.8 305.024l0.384-0.32 16.384-16.384L349.824 64l28.416 28.416-195.904 195.84h419.456A313.408 313.408 0 0 1 915.2 601.728v44.736A313.408 313.408 0 0 1 601.728 960z" p-id="5434"></path></svg>