<?xml version="1.0" standalone="no"?><!DOCTYPE svg PUBLIC "-//W3C//DTD SVG 1.1//EN" "http://www.w3.org/Graphics/SVG/1.1/DTD/svg11.dtd"><svg t="1575109268469" class="icon" viewBox="0 0 1024 1024" version="1.1" xmlns="http://www.w3.org/2000/svg" p-id="1896" xmlns:xlink="http://www.w3.org/1999/xlink" width="200" height="200"><defs><style type="text/css"></style></defs><path d="M960 928a32 32 0 0 1-32 32h-832a32 32 0 0 1-32-32v-832a32 32 0 0 1 32-32h384a32 32 0 0 1 0 64H128v768h768V544a32 32 0 1 1 64 0v384z m-8.704-832v256a32 32 0 1 1-64 0V173.248l-352.64 352.64a32 32 0 1 1-45.312-45.248L841.984 128h-178.688a32 32 0 0 1 0-64h256a32 32 0 0 1 32 32z" p-id="1897"></path></svg>