<?xml version="1.0" encoding="UTF-8"?>
<svg width="17px" height="17px" viewBox="0 0 17 17" version="1.1" xmlns="http://www.w3.org/2000/svg" xmlns:xlink="http://www.w3.org/1999/xlink">
    <!-- Generator: Sketch 59 (86127) - https://sketch.com -->
    <title>路径</title>
    <desc>Created with Sketch.</desc>
    <g id="Page1" stroke="none" stroke-width="1">
        <g id="设备监控-分组" transform="translate(-41.000000, -317.000000)">
            <g id="左侧导航">
                <path d="M50.4623671,317.353538 C49.9426007,316.882154 49.1498595,316.882154 48.630093,317.353538 L41.22105,324.387257 C40.9449461,324.640898 40.9247786,325.069579 41.175851,325.348011 C41.4269233,325.626442 41.8554843,325.650657 42.1363348,325.40228 L42.2541479,325.290444 L42.2541479,332.631611 C42.2536963,332.994374 42.3975169,333.342433 42.6539229,333.599105 C42.910329,333.855777 43.2582819,334 43.6211206,334 L47.599125,334 L47.599125,329.885472 C47.5987862,329.629961 47.7001005,329.384805 47.880732,329.204052 C48.0613636,329.023298 48.3064809,328.921789 48.5620454,328.921902 L50.4338775,328.921902 C50.6894419,328.921789 50.9345592,329.023298 51.1151908,329.204052 C51.2958224,329.384805 51.3971367,329.629961 51.3967979,329.885472 L51.3967979,334 L55.4692196,334 C55.832132,334 56.1801942,333.85594 56.4366923,333.599256 C56.6931904,333.342572 56.8370693,332.994448 56.8366176,332.631611 L56.8366176,325.380168 C57.1402948,325.654866 57.5711421,325.63403 57.8237812,325.352528 C57.9452925,325.217995 58.0083613,325.040706 57.9991085,324.859675 C57.9898556,324.678643 57.9090393,324.508705 57.7744442,324.387257 L50.4623671,317.353963 L50.4623671,317.353538 Z" id="路径"></path>
            </g>
        </g>
    </g>
</svg>