<?xml version="1.0" encoding="UTF-8"?>
<svg width="14px" height="14px" viewBox="0 0 14 14" version="1.1" xmlns="http://www.w3.org/2000/svg" xmlns:xlink="http://www.w3.org/1999/xlink">
    <!-- Generator: Sketch 59 (86127) - https://sketch.com -->
    <title>xinzeng-3</title>
    <desc>Created with Sketch.</desc>
    <g id="Page1" stroke="none" stroke-width="1" fill="none" fill-rule="evenodd">
        <g id="左侧菜单备份-5" transform="translate(-539.000000, -262.000000)" fill="#FFFFFF" fill-rule="nonzero">
            <g id="button" transform="translate(526.000000, 253.000000)">
                <g id="01备份-38">
                    <g id="xinzeng-3" transform="translate(13.000000, 9.000000)">
                        <path d="M7,14 C3.13400675,14 0,10.8659932 0,7 C0,3.13400675 3.13400675,0 7,0 C10.8659932,0 14,3.13400675 14,7 C14,10.8659932 10.8659932,14 7,14 Z M7,13 C10.3137085,13 13,10.3137085 13,7 C13,3.6862915 10.3137085,1 7,1 C3.6862915,1 1,3.6862915 1,7 C1.00556265,10.3097698 3.69022557,12.9899206 7,12.989916 L7,13 Z M6.50296045,6.50368017 L6.50296045,4.50306119 C6.50353663,4.32380648 6.59727955,4.15777682 6.75039236,4.06483037 C6.90743221,3.97838988 7.09773291,3.97838988 7.25477276,4.06483037 C7.40788557,4.15777682 7.50162849,4.32380648 7.50220466,4.50306119 L7.50220466,6.4941534 L9.50069308,6.4941534 C9.6799376,6.4941534 9.84459024,6.59305031 9.9289406,6.75137585 C10.0236865,6.90288688 10.0236865,7.09525619 9.9289406,7.24676722 C9.84059836,7.39994366 9.67737758,7.49434953 9.50069308,7.49446289 L7.49268806,7.49446289 L7.49268806,9.49508186 C7.49268806,9.62899448 7.43954813,9.75742238 7.34495846,9.8521129 C7.25036878,9.94680342 7.12207764,10 6.98830764,10 C6.85539598,10 6.72806146,9.946526 6.63497801,9.85155135 C6.54189457,9.75657669 6.49088785,9.62811061 6.49344385,9.49508186 L6.49344385,7.49446289 L4.49495544,7.49446289 C4.22164971,7.49446289 4.00009164,7.27266863 4.00009164,6.99907153 C3.99753564,6.86604278 4.04854236,6.7375767 4.1416258,6.64260204 C4.23470925,6.54762739 4.36204377,6.4941288 4.49495544,6.4941534 L6.50296045,6.50368017 Z" id="形状"></path>
                    </g>
                </g>
            </g>
        </g>
    </g>
</svg>