<?xml version="1.0" encoding="UTF-8"?>
<svg width="17px" height="17px" viewBox="0 0 17 17" version="1.1" xmlns="http://www.w3.org/2000/svg" xmlns:xlink="http://www.w3.org/1999/xlink">
    <!-- Generator: Sketch 59 (86127) - https://sketch.com -->
    <title>形状</title>
    <desc>Created with Sketch.</desc>
    <g id="Page1" stroke="none" stroke-width="1">
        <g id="统计中心-状态" transform="translate(-41.000000, -398.000000)">
            <g id="左侧导航">
                <g id="基础配置" transform="translate(41.000000, 395.000000)">
                    <g id="peizhi-4" transform="translate(0.000000, 3.000000)">
                        <path d="M17,10.8375 C17,10.94375 17,11.15625 17,11.36875 C17,11.58125 16.8947006,11.79375 16.7894012,12.00625 C16.6841019,12.21875 16.5788025,12.43125 16.4735031,12.5375 C16.3682037,12.75 16.2629043,12.85625 16.0523056,12.85625 C15.9470062,12.9625 15.7364074,12.9625 15.6311081,12.9625 C15.5258087,12.9625 15.4205093,12.9625 15.3152099,12.85625 C15.2099105,12.85625 14.9993118,12.75 14.8940124,12.75 C14.6834136,12.75 14.5781142,12.75 14.3675155,12.75 C14.1569167,12.75 13.946318,12.85625 13.8410186,12.85625 C13.6304198,12.9625 13.5251204,13.06875 13.3145217,13.175 C12.9986235,13.49375 12.8933242,13.8125 12.7880248,14.2375 C12.7880248,14.6625 12.7880248,14.98125 12.9986235,15.3 C13.1039229,15.5125 13.1039229,15.83125 12.8933242,16.04375 C12.7880248,16.15 12.6827254,16.25625 12.577426,16.3625 C12.4721266,16.46875 12.2615279,16.575 12.0509291,16.68125 C11.8403304,16.7875 11.6297316,16.7875 11.4191328,16.89375 C11.2085341,16.89375 10.9979353,17 10.8926359,17 C10.7873365,17 10.6820372,17 10.5767378,16.89375 C10.4714384,16.7875 10.366139,16.68125 10.366139,16.575 L10.366139,16.575 C10.2608396,16.15 10.0502409,15.83125 9.73434274,15.61875 C9.4184446,15.3 8.99724708,15.19375 8.57604955,15.19375 C8.15485203,15.19375 7.83895389,15.3 7.41775637,15.61875 C7.10185822,15.9375 6.89125946,16.25625 6.6806607,16.575 C6.57536132,16.68125 6.57536132,16.7875 6.36476256,16.89375 C6.36476256,17 6.25946318,17 6.04886442,17 C5.83826566,17 5.73296628,17 5.52236752,16.89375 C5.31176875,16.7875 5.10116999,16.7875 4.89057123,16.68125 C4.67997247,16.575 4.46937371,16.46875 4.36407433,16.3625 C4.15347557,16.25625 4.04817619,16.15 3.94287681,16.04375 C3.83757743,15.9375 3.83757743,15.83125 3.83757743,15.725 C3.83757743,15.61875 3.83757743,15.40625 3.94287681,15.19375 C4.04817619,14.875 4.15347557,14.55625 4.04817619,14.2375 C4.04817619,13.91875 3.83757743,13.49375 3.62697866,13.28125 C3.4163799,13.06875 3.20578114,12.9625 2.99518238,12.9625 C2.78458362,12.85625 2.57398486,12.85625 2.25808672,12.85625 C2.04748796,12.85625 1.73158981,12.9625 1.52099105,12.9625 C1.31039229,12.9625 1.20509291,12.9625 0.99449415,12.9625 C0.889194769,12.9625 0.783895389,12.75 0.573296628,12.64375 C0.467997247,12.43125 0.362697866,12.21875 0.257398486,12.00625 C0.152099105,11.79375 0.0467997247,11.58125 0.0467997247,11.36875 C0.0467997247,11.15625 -0.0584996559,10.94375 0.0467997247,10.8375 C0.0467997247,10.51875 0.152099105,10.4125 0.362697866,10.30625 C0.889194769,10.2 1.20509291,9.88125 1.52099105,9.5625 C1.83688919,9.24375 1.94218858,8.81875 1.94218858,8.5 C1.94218858,8.075 1.83688919,7.65 1.52099105,7.4375 C1.20509291,7.0125 0.889194769,6.8 0.573296628,6.69375 C0.467997247,6.5875 0.362697866,6.48125 0.257398486,6.375 C0.152099105,6.26875 0.152099105,6.05625 0.152099105,5.95 C0.152099105,5.84375 0.152099105,5.63125 0.257398486,5.41875 C0.257398486,5.20625 0.362697866,4.99375 0.467997247,4.8875 C0.573296628,4.675 0.678596008,4.56875 0.783895389,4.35625 C0.783895389,4.25 0.889194769,4.14375 0.99449415,4.0375 C1.09979353,3.93125 1.20509291,3.93125 1.31039229,3.93125 C1.41569167,3.93125 1.52099105,3.93125 1.62629043,4.0375 C1.94218858,4.14375 2.3633861,4.25 2.67928424,4.14375 C3.10048176,4.0375 3.4163799,3.93125 3.73227805,3.6125 C3.83757743,3.50625 3.94287681,3.29375 4.04817619,3.08125 C4.15347557,2.86875 4.15347557,2.65625 4.15347557,2.44375 C4.15347557,2.23125 4.15347557,2.01875 4.15347557,1.9125 C4.15347557,1.7 4.15347557,1.59375 4.15347557,1.59375 C4.15347557,1.4875 4.15347557,1.4875 4.04817619,1.38125 C4.04817619,1.275 4.04817619,1.16875 4.04817619,1.16875 C4.15347557,0.85 4.36407433,0.74375 4.46937371,0.53125 C4.67997247,0.425 4.89057123,0.31875 5.10116999,0.2125 C5.31176875,0.10625 5.52236752,0.10625 5.73296628,0 C5.94356504,0 6.1541638,0 6.25946318,0 C6.36476256,0 6.47006194,0 6.57536132,0.10625 C6.6806607,0.2125 6.6806607,0.31875 6.78596008,0.425 C6.89125946,0.85 7.10185822,1.0625 7.41775637,1.38125 C7.73365451,1.59375 8.04955265,1.80625 8.47075017,1.80625 C8.89194769,1.80625 9.31314522,1.7 9.62904336,1.4875 C9.9449415,1.275 10.1555403,0.95625 10.366139,0.53125 C10.366139,0.425 10.4714384,0.31875 10.5767378,0.2125 C10.6820372,0 10.7873365,0 10.8926359,0 C11.1032347,0 11.2085341,0 11.4191328,0.10625 C11.6297316,0.10625 11.8403304,0.2125 12.0509291,0.31875 C12.2615279,0.425 12.4721266,0.53125 12.577426,0.6375 C12.6827254,0.74375 12.7880248,0.85 12.8933242,1.0625 C12.9986235,1.16875 12.9986235,1.275 12.9986235,1.38125 C12.9986235,1.4875 12.9986235,1.59375 12.8933242,1.59375 C12.7880248,1.9125 12.6827254,2.3375 12.7880248,2.65625 C12.8933242,3.08125 12.9986235,3.4 13.3145217,3.71875 C13.6304198,4.0375 13.946318,4.14375 14.3675155,4.25 C14.788713,4.25 15.2099105,4.25 15.5258087,4.0375 C15.6311081,3.93125 15.7364074,3.93125 15.8417068,3.93125 C15.9470062,3.93125 16.0523056,4.0375 16.157605,4.14375 C16.3682037,4.35625 16.4735031,4.56875 16.6841019,4.8875 C16.7894012,5.20625 16.8947006,5.63125 17,5.95 C17,6.1625 17,6.26875 16.8947006,6.48125 C16.7894012,6.5875 16.6841019,6.69375 16.5788025,6.69375 C16.157605,6.8 15.8417068,7.0125 15.6311081,7.4375 C15.3152099,7.75625 15.2099105,8.18125 15.2099105,8.60625 C15.2099105,9.03125 15.3152099,9.35 15.5258087,9.66875 C15.7364074,9.9875 16.0523056,10.2 16.3682037,10.30625 C16.4735031,10.30625 16.4735031,10.4125 16.5788025,10.4125 C16.7894012,10.51875 16.8947006,10.625 17,10.8375 L17,10.8375 L17,10.8375 L17,10.8375 Z M8.57604955,12.43125 C9.10254646,12.43125 9.62904336,12.325 10.1555403,12.1125 C10.6820372,11.9 11.1032347,11.58125 11.4191328,11.2625 C11.735031,10.94375 12.0509291,10.51875 12.2615279,9.9875 C12.3668273,9.5625 12.4721266,9.03125 12.4721266,8.5 C12.4721266,7.96875 12.3668273,7.4375 12.1562285,6.90625 C11.9456297,6.375 11.6297316,6.05625 11.3138334,5.63125 C10.9979353,5.3125 10.5767378,4.99375 10.0502409,4.78125 C9.62904336,4.56875 9.10254646,4.4625 8.57604955,4.4625 C8.04955265,4.4625 7.52305575,4.56875 6.99655884,4.78125 C6.57536132,4.99375 6.1541638,5.3125 5.73296628,5.63125 C5.41706813,6.05625 5.10116999,6.48125 4.89057123,6.90625 C4.78527185,7.4375 4.67997247,7.96875 4.67997247,8.5 C4.67997247,9.03125 4.78527185,9.5625 4.99587061,10.09375 C5.20646937,10.625 5.52236752,11.05 5.83826566,11.36875 C6.1541638,11.6875 6.57536132,12.00625 7.10185822,12.21875 C7.52305575,12.325 8.04955265,12.43125 8.57604955,12.43125 L8.57604955,12.43125 L8.57604955,12.43125 L8.57604955,12.43125 Z" id="形状"></path>
                    </g>
                </g>
            </g>
        </g>
    </g>
</svg>
