<?xml version="1.0" encoding="UTF-8"?>
<svg width="14px" height="13px" viewBox="0 0 14 13" version="1.1" xmlns="http://www.w3.org/2000/svg" xmlns:xlink="http://www.w3.org/1999/xlink">
    <!-- Generator: Sketch 59 (86127) - https://sketch.com -->
    <title>kanban-2</title>
    <desc>Created with Sketch.</desc>
    <g id="Page1" stroke="none" stroke-width="1">
        <g id="左侧菜单备份-8" transform="translate(-23.000000, -387.000000)">
            <g id="左侧导航">
                <g id="kanban-2" transform="translate(23.000000, 387.000000)">
                    <path d="M13.2222222,0.872483223 L7.77777778,0.872483223 C7.77777778,0.348993295 7.46666666,0 7,0 C6.53333334,0 6.22222222,0.348993295 6.22222222,0.872483223 L0.777777779,0.872483223 C0.311111117,0.872483223 0,1.22147652 0,1.74496645 C0,2.26845637 0.311111117,2.61744967 0.777777779,2.61744967 L0.777777779,9.59731543 C0.777777779,10.2080537 1.01111112,10.4697987 1.55555556,10.4697987 L3.57777778,10.4697987 L2.64444444,12.0402685 C2.48888888,12.3020134 2.56666666,12.738255 2.8,12.9127517 C2.87777778,13 3.03333334,13 3.11111112,13 C3.26666668,13 3.5,12.9127517 3.57777778,12.738255 L4.97777778,10.4697987 L9.1,10.4697987 L10.4222222,12.738255 C10.5,12.9127517 10.7333333,13 10.8888889,13 C10.9666667,13 11.1222222,13 11.2,12.9127517 C11.4333333,12.738255 11.5111111,12.3020134 11.3555556,12.0402685 L10.4222222,10.4697987 L12.4444444,10.4697987 C12.9888889,10.4697987 13.2222222,10.2080537 13.2222222,9.59731543 L13.2222222,2.61744967 C13.6888889,2.61744967 14,2.26845637 14,1.74496645 C14,1.22147652 13.6888889,0.872483223 13.2222222,0.872483223 Z M11.3555556,4.18791947 L8.32222222,7.67785236 C8.08888888,7.93959733 7.77777778,7.93959733 7.62222222,7.67785236 L6.53333334,6.36912751 L4.9,8.28859061 C4.74444444,8.37583893 4.66666666,8.46308725 4.51111112,8.46308725 C4.35555557,8.46308725 4.27777778,8.37583893 4.12222222,8.28859061 L3.11111112,7.15436241 C2.95555556,6.89261744 2.95555556,6.54362416 3.11111112,6.28187919 C3.34444446,6.02013422 3.65555556,6.02013422 3.81111112,6.28187919 L4.43333334,7.06711409 L6.06666666,5.14765101 C6.37777778,4.88590604 6.68888888,4.88590604 6.84444444,5.14765101 L8.01111112,6.45637584 L10.6555556,3.40268457 C10.8888889,3.1409396 11.2,3.1409396 11.3555556,3.40268457 C11.5111111,3.57718121 11.5111111,4.01342282 11.3555556,4.18791947 Z" id="形状"></path>
                </g>
            </g>
        </g>
    </g>
</svg>
