<?xml version="1.0" encoding="UTF-8"?>
<svg width="17px" height="20px" viewBox="0 0 17 20" version="1.1" xmlns="http://www.w3.org/2000/svg" xmlns:xlink="http://www.w3.org/1999/xlink">
    <!-- Generator: Sketch 59 (86127) - https://sketch.com -->
    <title>baogaogongdan</title>
    <desc>Created with Sketch.</desc>
    <g id="Page1" stroke="none" stroke-width="1">
        <g id="统计中心-状态" transform="translate(-41.000000, -188.000000)">
            <g id="左侧导航">
                <g id="生产工单" transform="translate(41.000000, 187.000000)">
                    <g id="baogaogongdan" transform="translate(0.000000, 1.000000)">
                        <path d="M15.7802763,3 L12.9173916,3 C12.9310526,3.06945672 12.9364655,3.14116853 12.9364655,3.21288035 C12.9364655,3.92345871 12.2748084,4.5023399 11.4626224,4.5023399 L5.53967036,4.5023399 C4.72748437,4.5023399 4.0658273,3.9232332 4.0658273,3.21288035 C4.0658273,3.14094303 4.07407546,3.06923121 4.08490117,3 L1.22227419,3 C0.546698345,3 0,3.47604916 0,4.06214664 L0,18.9400925 C0.00257754995,19.5286705 0.54953365,20.0022391 1.22227419,20 L15.7776988,20 C16.4530169,20 16.999982,19.5239349 16.999982,18.9378374 L16.999982,4.06462724 C17.0025505,3.47356857 16.4558522,3 15.7802763,3 Z M3.64207808,9.89944301 C3.64207808,9.60988965 3.90730797,9.37558597 4.23826539,9.37558597 L7.90508795,9.37558597 C8.23604536,9.38032165 8.5010175,9.61733144 8.5010175,9.90665929 C8.5010175,10.2009483 8.24120046,10.4377326 7.90508795,10.4377326 L4.23826539,10.4377326 C3.91014328,10.4377326 3.64207808,10.191477 3.64207808,9.90665929 L3.64207808,9.89944301 Z M10.3333978,12.5622514 C10.669768,12.5622514 10.9404108,12.7990357 10.9404108,13.0933247 C10.9404108,13.3876138 10.669768,13.624398 10.3333978,13.624398 L4.24084294,13.624398 C3.91272083,13.624398 3.64491339,13.3779169 3.64491339,13.0933247 C3.64491339,12.8037714 3.91014328,12.5669871 4.24084294,12.5622514 L10.3333978,12.5622514 L10.3333978,12.5622514 Z M12.7506241,16.8135441 L4.2519264,16.8135441 C3.91555613,16.8135441 3.64491339,16.5670629 3.64491339,16.2824708 C3.64491339,15.9881817 3.92380429,15.7513974 4.2519264,15.7513974 L12.7532017,15.7513974 C13.0895719,15.7513974 13.3602147,15.9976531 13.3602147,16.2824708 C13.3576371,16.5742792 13.0787462,16.8135441 12.7506241,16.8135441 Z M12.7506241,7.25106717 L4.2519264,7.25106717 C3.91555613,7.25106717 3.64491339,7.00481152 3.64491339,6.71999385 C3.64491339,6.42570481 3.92380429,6.18892053 4.2519264,6.18892053 L12.7532017,6.18892053 C13.0895719,6.18892053 13.3602147,6.43517618 13.3602147,6.71999385 C13.3576371,7.0120278 13.0787462,7.25106717 12.7506241,7.25106717 Z" id="形状"></path>
                        <path d="M5.05708706,4 L10.9429129,4 C11.5243492,4 12,3.43893043 12,2.75307803 C12,2.06722562 11.5246054,1.50645819 10.9429129,1.50645819 L10.4700797,1.50645819 C10.4726411,1.48379787 10.4726411,1.46143969 10.4726411,1.44240502 C10.4726411,0.644157414 9.36663145,0 7.99987193,0 C6.63311241,0 5.52710274,0.644157414 5.52710274,1.44240502 C5.52710274,1.4647632 5.52710274,1.48742352 5.52966414,1.50645819 L5.05683092,1.50645819 C4.47539461,1.50645819 4,2.06752776 4,2.75307803 C4.00025614,3.43590906 4.47590689,4 5.05708706,4 Z" id="路径"></path>
                    </g>
                </g>
            </g>
        </g>
    </g>
</svg>