<?xml version="1.0" standalone="no"?>
<!DOCTYPE svg PUBLIC "-//W3C//DTD SVG 1.1//EN" "http://www.w3.org/Graphics/SVG/1.1/DTD/svg11.dtd">
    <svg t="1575704957043" class="icon" viewBox="0 0 1024 1024" version="1.1" xmlns="http://www.w3.org/2000/svg" p-id="2661" xmlns:xlink="http://www.w3.org/1999/xlink" width="200" height="200">
        <defs>
            <style type="text/css"></style>
        </defs>
        <path d="M511.488 512c105.472 0 191.488-86.016 191.488-192S617.472 128 511.488 128c-105.472 0-191.488 86.016-191.488 192 0.512 105.984 86.016 192 191.488 192m263.68 119.808c-43.52-50.176-58.368-67.584-138.24-72.192H387.072c-79.872 4.608-94.72 22.016-138.24 72.192-46.592 51.712-83.456 117.248-66.048 198.656 19.456 53.248 71.68 65.536 121.856 65.536h415.232c49.664 0 102.4-12.288 121.856-65.536 16.896-81.408-19.968-146.944-66.56-198.656" p-id="2662"></path>
    </svg>