<?xml version="1.0" standalone="no"?><!DOCTYPE svg PUBLIC "-//W3C//DTD SVG 1.1//EN" "http://www.w3.org/Graphics/SVG/1.1/DTD/svg11.dtd"><svg t="1575705367110" class="icon" viewBox="0 0 1024 1024" version="1.1" xmlns="http://www.w3.org/2000/svg" p-id="4129" xmlns:xlink="http://www.w3.org/1999/xlink" width="200" height="200"><defs><style type="text/css"></style></defs><path d="M755.825778 365.909333C755.825778 226.702222 646.599111 113.777778 512 113.777778 377.400889 113.777778 268.174222 226.702222 268.174222 365.909333v50.403556C214.528 416.312889 170.666667 461.710222 170.666667 517.176889v302.535111c0 55.466667 43.861333 100.864 97.507555 100.864h487.651556c53.646222 0 97.507556-45.397333 97.507555-100.864V517.176889c0-55.466667-43.861333-100.864-97.507555-100.864v-50.403556z m-341.333334 302.535111c0-55.466667 43.861333-100.864 97.507556-100.864s97.507556 45.397333 97.507556 100.864c0 55.466667-43.861333 100.864-97.507556 100.864s-97.507556-45.397333-97.507556-100.864z m-48.753777-252.131555v-50.403556c0-84.536889 65.536-151.324444 146.261333-151.324444 80.725333 0 146.261333 66.787556 146.261333 151.324444v50.403556H365.795556z" p-id="4130"></path></svg>