<?xml version="1.0" encoding="UTF-8"?>
<svg width="17px" height="16px" viewBox="0 0 17 16" version="1.1" xmlns="http://www.w3.org/2000/svg" xmlns:xlink="http://www.w3.org/1999/xlink">
    <!-- Generator: Sketch 59 (86127) - https://sketch.com -->
    <title>形状</title>
    <desc>Created with Sketch.</desc>
    <g id="Page1" stroke="none" stroke-width="1">
        <g id="统计中心-状态" transform="translate(-41.000000, -242.000000)">
            <g id="左侧导航">
                <g id="设备监控" transform="translate(41.000000, 239.000000)">
                    <g id="business_monitor" transform="translate(0.000000, 3.000000)">
                        <path d="M15.52172,0 L1.47825843,0 C0.66521694,0 0,0.669769052 0,1.48837422 L0,11.9069676 C0,12.7255728 0.66521694,13.3953419 1.47825843,13.3953419 L7.76086646,13.3953419 L7.76086646,14.5116236 L4.84129926,14.5116236 C4.47173141,14.5116236 4.13912402,14.772089 4.06521391,15.1441836 C3.99130099,15.6279054 4.36086517,16 4.80434313,16 L12.1586899,16 C12.5282578,16 12.8608652,15.7395346 12.9347753,15.36744 C13.0086882,14.8837182 12.639124,14.5116236 12.1956461,14.5116236 L9.23913354,14.5116236 L9.23913354,13.3953419 L15.5217416,13.3953419 C16.3347831,13.3953419 17,12.7255728 17,11.9069676 L17,1.48837422 C17,0.669769052 16.3347831,0 15.5217416,0 L15.52172,0 Z M13.3043302,7.4418711 L10.8652035,7.4418711 L10.0152016,9.97210683 C9.94128867,10.1953632 9.64563374,10.2325722 9.49781136,10.0465255 L6.83694792,6.32555735 L6.50434053,7.18137372 C6.46738418,7.33021114 6.31955812,7.40463007 6.17173314,7.40463007 L3.36305381,7.40463007 C2.99348596,7.40463007 2.66087857,7.14416469 2.58696846,6.77207005 C2.51305554,6.28834832 2.88261971,5.91625367 3.32609767,5.91625367 L5.39566076,5.91625367 L6.24566055,3.7581104 C6.31957347,3.53485405 6.6152284,3.49764502 6.76305078,3.68369169 L9.35000195,7.25580201 L9.71956979,6.13952025 C9.75652615,5.99068283 9.90435221,5.87905488 10.0521772,5.87905488 L13.2304265,5.87905488 C13.5999944,5.87905488 13.9326018,6.13952025 14.0065119,6.5116149 C14.1173814,7.06975469 13.7847729,7.44184933 13.3043366,7.44184933 L13.3043302,7.4418711 Z" id="形状"></path>
                    </g>
                </g>
            </g>
        </g>
    </g>
</svg>