<?xml version="1.0" encoding="UTF-8"?>
<svg width="17px" height="17px" viewBox="0 0 17 17" version="1.1" xmlns="http://www.w3.org/2000/svg" xmlns:xlink="http://www.w3.org/1999/xlink">
    <!-- Generator: Sketch 59 (86127) - https://sketch.com -->
    <title>形状</title>
    <desc>Created with Sketch.</desc>
    <g id="Page1" stroke="none" stroke-width="1">
        <g id="统计中心-状态" transform="translate(-41.000000, -294.000000)">
            <g id="左侧导航">
                <g id="程序管理" transform="translate(41.000000, 291.000000)">
                    <g id="yingyongchengxu" transform="translate(0.000000, 3.000000)">
                        <path d="M7.4375,7.79166667 L0.354166667,7.79166667 C0.159375,7.79166667 0,7.63229167 0,7.4375 L0,0.354166667 C0,0.159375 0.159375,0 0.354166667,0 L7.4375,0 C7.63229167,0 7.79166667,0.159375 7.79166667,0.354166667 L7.79166667,7.4375 C7.79166667,7.63229167 7.63229167,7.79166667 7.4375,7.79166667 Z M7.79166667,16.6458333 L7.79166667,9.5625 C7.79166667,9.36770833 7.63229167,9.20833333 7.4375,9.20833333 L0.354166667,9.20833333 C0.159375,9.20833333 0,9.36770833 0,9.5625 L0,16.6458333 C0,16.840625 0.159375,17 0.354166667,17 L7.4375,17 C7.63229167,17 7.79166667,16.840625 7.79166667,16.6458333 Z M15.5833333,1.41666667 L10.625,1.41666667 L10.625,6.375 L15.5833333,6.375 L15.5833333,1.41666667 M16.6458333,0 C16.840625,0 17,0.159375 17,0.354166667 L17,7.4375 C17,7.63229167 16.840625,7.79166667 16.6458333,7.79166667 L9.5625,7.79166667 C9.36770833,7.79166667 9.20833333,7.63229167 9.20833333,7.4375 L9.20833333,0.354166667 C9.20833333,0.159375 9.36770833,0 9.5625,0 L16.6458333,0 Z M17,16.6458333 L17,9.5625 C17,9.36770833 16.840625,9.20833333 16.6458333,9.20833333 L9.5625,9.20833333 C9.36770833,9.20833333 9.20833333,9.36770833 9.20833333,9.5625 L9.20833333,16.6458333 C9.20833333,16.840625 9.36770833,17 9.5625,17 L16.6458333,17 C16.840625,17 17,16.840625 17,16.6458333 Z" id="形状"></path>
                    </g>
                </g>
            </g>
        </g>
    </g>
</svg>