<?xml version="1.0" encoding="UTF-8"?>
<svg width="17px" height="17px" viewBox="0 0 17 17" version="1.1" xmlns="http://www.w3.org/2000/svg" xmlns:xlink="http://www.w3.org/1999/xlink">
    <!-- Generator: Sketch 59 (86127) - https://sketch.com -->
    <title>形状</title>
    <desc>Created with Sketch.</desc>
    <g id="Page1" stroke="none" stroke-width="1">
        <g id="统计中心-状态" transform="translate(-41.000000, -345.000000)">
            <g id="左侧导航">
                <g id="统计中心" transform="translate(41.000000, 343.000000)">
                    <g id="tongji-4" transform="translate(0.000000, 2.000000)">
                        <path d="M8.53063943,8.48954107 L8.53063943,0 C13.0217648,0.406542466 16.5944239,3.98771439 17,8.48954107 L8.53063943,8.48954107 L8.53063943,8.48954107 Z M15.6356365,9.86001041 L7.83586515,9.86001041 C7.4424517,9.86001041 7.12350075,9.54031743 7.12350075,9.14594861 C7.12350075,9.14594861 7.12350075,9.14594861 7.12350075,9.14594861 L7.12350075,1.32710744 C3.13054143,1.68838476 0,5.04874319 0,9.14546382 C0,13.4835387 3.50903372,17 7.83586515,17 C11.9228475,17 15.2756479,13.8629508 15.6356365,9.8599745 L15.6356365,9.86001041 Z" id="形状"></path>
                    </g>
                </g>
            </g>
        </g>
    </g>
</svg>