<svg id="图层_1" data-name="图层 1" xmlns="http://www.w3.org/2000/svg" viewBox="0 0 21 21">
    <defs>
        <style>.cls-1{fill:#fff;stroke:#fff;stroke-miterlimit:10;stroke-width:0.18px;}</style>
    </defs>
    <title>图标</title>
    <path class="cls-1"
          d="M10.42,6.15a4.21,4.21,0,1,0,4.2,4.21,4.2,4.2,0,0,0-4.2-4.21ZM13,10.36a2.59,2.59,0,1,1-2.59-2.6A2.59,2.59,0,0,1,13,10.36Zm0,0"/>
    <path class="cls-1"
          d="M20.54,8.16a.69.69,0,0,0-.1-.25.7.7,0,0,0-.2-.22.57.57,0,0,0-.3-.15.65.65,0,0,0-.24,0h-.08a2.23,2.23,0,0,1-1.87-3.43A.54.54,0,0,0,17.82,4a.8.8,0,0,0-.18-.89l-.14-.14a10.3,10.3,0,0,0-4-2.3.77.77,0,0,0-.52,0,.75.75,0,0,0-.39.31h0l0,.09a0,0,0,0,1,0,0,2.24,2.24,0,0,1-2,1.27,2.24,2.24,0,0,1-2-1.27.76.76,0,0,0-.41-.4A.9.9,0,0,0,7.81.59a1,1,0,0,0-.3,0A10.39,10.39,0,0,0,3.39,3l-.06.07a.78.78,0,0,0-.19.51.72.72,0,0,0,.14.47,2.25,2.25,0,0,1,.09,2.28A2.23,2.23,0,0,1,1.42,7.52H1.1a.8.8,0,0,0-.64.63,10.28,10.28,0,0,0,0,4.68.92.92,0,0,0,.25.44.82.82,0,0,0,.49.2h.22a2.22,2.22,0,0,1,1.86,3.44.75.75,0,0,0-.14.48.8.8,0,0,0,.18.49A.6.6,0,0,0,3.4,18a10.24,10.24,0,0,0,4.13,2.4l.06,0,.17,0a.82.82,0,0,0,.74-.47,2.22,2.22,0,0,1,4,0,.8.8,0,0,0,.9.45l.07,0a10.27,10.27,0,0,0,4.15-2.43l.08-.07a.83.83,0,0,0,.18-.5.86.86,0,0,0-.14-.47,2.23,2.23,0,0,1,1.87-3.43h.08a.74.74,0,0,0,.26,0,.8.8,0,0,0,.58-.61h0a10.32,10.32,0,0,0,0-4.69ZM15.79,15.7a3.84,3.84,0,0,0,.29,1.46,8.54,8.54,0,0,1-2.49,1.46,3.84,3.84,0,0,0-5.15-1,4,4,0,0,0-1,1A8.61,8.61,0,0,1,5,17.19a3.81,3.81,0,0,0,.3-1.49,3.83,3.83,0,0,0-3.34-3.8,9.39,9.39,0,0,1,0-2.8A3.85,3.85,0,0,0,5,3.8,8.61,8.61,0,0,1,7.4,2.37a3.84,3.84,0,0,0,5.16,1,3.66,3.66,0,0,0,1-1,8.77,8.77,0,0,1,2.49,1.46,3.87,3.87,0,0,0,.21,3.37,3.82,3.82,0,0,0,2.79,1.89,8.39,8.39,0,0,1,.12,1.41,8.18,8.18,0,0,1-.12,1.4,3.85,3.85,0,0,0-3.29,3.8Zm0,0"/>
</svg>
