<svg id="图层_1" data-name="图层 1" xmlns="http://www.w3.org/2000/svg" viewBox="0 0 21 21"><defs><style>.cls-1{fill:#fff;stroke:#fff;stroke-miterlimit:10;stroke-width:0.6px;}</style></defs><title>图标</title><path class="cls-1" d="M15.23,20.06h-3a.53.53,0,0,1-.53-.53V13.34H9.19v6.19a.54.54,0,0,1-.54.53h-3A2.85,2.85,0,0,1,3,17.1V12.16H2.55a1.7,1.7,0,0,1-1.66-1,2.14,2.14,0,0,1,.59-2.25l7-7.09a2.84,2.84,0,0,1,2-.85,2.7,2.7,0,0,1,2,.85l7,7.14A2,2,0,0,1,20,11.18a1.68,1.68,0,0,1-1.66,1h-.45v4.94a2.76,2.76,0,0,1-2.68,2.91Zm-2.38-1.12h2.43a1.72,1.72,0,0,0,1.58-1.84V11.62a.53.53,0,0,1,.53-.53h1a.61.61,0,0,0,.62-.36c0-.05.18-.44-.4-1l-7-7.14a1.61,1.61,0,0,0-2.34,0l-7,7.13c-.54.59-.41,1-.41,1,.09.27.32.36.63.36h1a.54.54,0,0,1,.53.53v5.48a1.71,1.71,0,0,0,1.57,1.84H8.06V13.51a1.37,1.37,0,0,1,.27-1,1.14,1.14,0,0,1,.81-.27h2.59a1.16,1.16,0,0,1,.81.27,1.41,1.41,0,0,1,.26,1v5.42h0Zm0,0"/></svg>